<svg width="512" height="512" viewBox="0 0 512 512" xmlns="http://www.w3.org/2000/svg">
    <!-- Outer sawtooth -->
  <g>
    <circle cx="256" cy="256" r="251" fill="#D7D3C8"/>
    <circle cx="256" cy="256" r="240" fill="none"/>
    <!-- New border circle just inside the sawtooth -->
    
    <g>
      <defs>
        <polygon id="tooth" points="256,16 272,48 240,48" fill="#222"/>
      </defs>
      <g>
        <!-- 48 teeth for smoother look -->
        <use href="#tooth" transform="rotate(0,256,256)"/>
        <use href="#tooth" transform="rotate(7.5,256,256)"/>
        <use href="#tooth" transform="rotate(15,256,256)"/>
        <use href="#tooth" transform="rotate(22.5,256,256)"/>
        <use href="#tooth" transform="rotate(30,256,256)"/>
        <use href="#tooth" transform="rotate(37.5,256,256)"/>
        <use href="#tooth" transform="rotate(45,256,256)"/>
        <use href="#tooth" transform="rotate(52.5,256,256)"/>
        <use href="#tooth" transform="rotate(60,256,256)"/>
        <use href="#tooth" transform="rotate(67.5,256,256)"/>
        <use href="#tooth" transform="rotate(75,256,256)"/>
        <use href="#tooth" transform="rotate(82.5,256,256)"/>
        <use href="#tooth" transform="rotate(90,256,256)"/>
        <use href="#tooth" transform="rotate(97.5,256,256)"/>
        <use href="#tooth" transform="rotate(105,256,256)"/>
        <use href="#tooth" transform="rotate(112.5,256,256)"/>
        <use href="#tooth" transform="rotate(120,256,256)"/>
        <use href="#tooth" transform="rotate(127.5,256,256)"/>
        <use href="#tooth" transform="rotate(135,256,256)"/>
        <use href="#tooth" transform="rotate(142.5,256,256)"/>
        <use href="#tooth" transform="rotate(150,256,256)"/>
        <use href="#tooth" transform="rotate(157.5,256,256)"/>
        <use href="#tooth" transform="rotate(165,256,256)"/>
        <use href="#tooth" transform="rotate(172.5,256,256)"/>
        <use href="#tooth" transform="rotate(180,256,256)"/>
        <use href="#tooth" transform="rotate(187.5,256,256)"/>
        <use href="#tooth" transform="rotate(195,256,256)"/>
        <use href="#tooth" transform="rotate(202.5,256,256)"/>
        <use href="#tooth" transform="rotate(210,256,256)"/>
        <use href="#tooth" transform="rotate(217.5,256,256)"/>
        <use href="#tooth" transform="rotate(225,256,256)"/>
        <use href="#tooth" transform="rotate(232.5,256,256)"/>
        <use href="#tooth" transform="rotate(240,256,256)"/>
        <use href="#tooth" transform="rotate(247.5,256,256)"/>
        <use href="#tooth" transform="rotate(255,256,256)"/>
        <use href="#tooth" transform="rotate(262.5,256,256)"/>
        <use href="#tooth" transform="rotate(270,256,256)"/>
        <use href="#tooth" transform="rotate(277.5,256,256)"/>
        <use href="#tooth" transform="rotate(285,256,256)"/>
        <use href="#tooth" transform="rotate(292.5,256,256)"/>
        <use href="#tooth" transform="rotate(300,256,256)"/>
        <use href="#tooth" transform="rotate(307.5,256,256)"/>
        <use href="#tooth" transform="rotate(315,256,256)"/>
        <use href="#tooth" transform="rotate(322.5,256,256)"/>
        <use href="#tooth" transform="rotate(330,256,256)"/>
        <use href="#tooth" transform="rotate(337.5,256,256)"/>
        <use href="#tooth" transform="rotate(345,256,256)"/>
        <use href="#tooth" transform="rotate(352.5,256,256)"/>
      </g>
    </g>
  </g>
  
 <!-- Middle circle -->
<!-- Text paths: radius matches middle circle -->
  <!-- Text paths: radius just outside the middle circle -->
<defs>
  <path id="topArc" d="
  M 108,341 
  A 170,170 0 1,1 
  266,426" fill="none"/>
  <path id="bottomArc" d="
  M 166,424 
  A 170,171 0 0,0 
  403,192" fill="none"/>
</defs>

<!-- Top text: DEPARTMENT OF GOVERNMENT EFFICIENCY -->
<text font-family="Arial, sans-serif"
      font-size="29"
      font-weight="900"
      fill="#222"
      letter-spacing="2">
  <textPath href="#topArc" startOffset="0%" text-anchor="start">
    DEPARTMENT OF GOVERNMENT EFFICIENCY
  </textPath>
</text>

<!-- Bottom text: CALIFORNIA -->
<text font-family="Arial, sans-serif"
      font-size="29"
      font-weight="900"
      fill="#222"
      letter-spacing="2">
  <textPath href="#bottomArc" startOffset="0%" text-anchor="start">CALIFORNIA
  </textPath>
</text>

<!--inner circle with png clip path-->
<!-- used for debugging <circle cx="256" cy="256" r="168" fill="none" stroke="#222" stroke-width="1"/> -->
  <clipPath id="innercircle">
    <circle cx="256" cy="256" r="168" />
  </clipPath>
  <image
    href="califonia-inner-logo.png"
    x="10" y="10"
    width="490" height="490"
    clip-path="url(#innercircle)"
  />
</svg>
